<svg width="37" height="37" viewBox="0 0 37 37" fill="none" xmlns="http://www.w3.org/2000/svg">
<path fill-rule="evenodd" clip-rule="evenodd" d="M21.9038 28.3206L21.8856 28.3388L17.523 23.9762L19.4499 22.0494L21.9038 24.5033L26.43 19.9953L28.3568 21.9221L21.922 28.357L21.9038 28.3206ZM18.1774 0C8.17977 0 -0.00012207 8.17989 -0.00012207 18.1775C-0.00012207 28.1752 8.17977 36.3551 18.1774 36.3551C28.1751 36.3551 36.355 28.1752 36.355 18.1775C36.355 8.17989 28.1751 0 18.1774 0ZM9.70669 7.77999L12.2697 10.343L14.8328 7.77999L16.7596 9.70681L14.1965 12.2698L16.7596 14.8329L14.8328 16.7597L12.2697 14.1967L9.70669 16.7597L7.77987 14.8329L10.3429 12.2698L7.77987 9.70681L9.70669 7.77999ZM18.1774 32.7196C14.1784 32.7196 10.5429 31.0836 7.81622 28.5387L28.5386 7.81634C31.0835 10.543 32.7195 14.1785 32.7195 18.1775C32.7195 26.1757 26.1755 32.7196 18.1774 32.7196Z" fill="#A9ACAC"/>
</svg>
